# xmcd CD database file
#
# Track frame offsets:
#	150
#	22227
#	42152
#	60727
#	71444
#	84957
#	104801
#	116807
#	129946
#	148831
#	162763
#
# Disc length: 2485 seconds
#
# Revision: 0
# Processed by: cddbd v1.5.2PL0 Copyright (c) Steve Scherf et al.
# Submitted via: CDex 1.70beta2
#
DISCID=9b09b30b
DTITLE=Dead Men on Holidays - Dead Men on Holidays
DYEAR=2007
DGENRE=Country
TTITLE0=Mr Brown
TTITLE1=Dead Men on Holidays
TTITLE2=Long and Gravel Road
TTITLE3=Sputnik Monroe
TTITLE4=Parting Without Tears
TTITLE5=No Captain I Have My Doubts
TTITLE6=Favorites
TTITLE7=Black Leather White
TTITLE8=Invisible Hands
TTITLE9=Love's A Train (Richard)
TTITLE10=Hold Back Your Love
EXTD=YEAR: 2007
EXTT0=
EXTT1=
EXTT2=
EXTT3=
EXTT4=
EXTT5=
EXTT6=
EXTT7=
EXTT8=
EXTT9=
EXTT10=
PLAYORDER=
